<?xml version="1.0" standalone="no"?><!DOCTYPE svg PUBLIC "-//W3C//DTD SVG 1.1//EN" "http://www.w3.org/Graphics/SVG/1.1/DTD/svg11.dtd"><svg t="1584761274678" class="icon" viewBox="0 0 1024 1024" version="1.1" xmlns="http://www.w3.org/2000/svg" p-id="3113" xmlns:xlink="http://www.w3.org/1999/xlink" width="128" height="128"><defs><style type="text/css"></style></defs><path d="M396.8 204.8h409.6a38.4 38.4 0 0 1 0 76.8h-409.6a38.4 38.4 0 0 1 0-76.8z m0 281.6h409.6a38.4 38.4 0 0 1 0 76.8h-409.6a38.4 38.4 0 0 1 0-76.8z m0 281.6h409.6a38.4 38.4 0 0 1 0 76.8h-409.6a38.4 38.4 0 0 1 0-76.8z m-179.2 0a38.4 38.4 0 1 1 0 76.8 38.4 38.4 0 0 1 0-76.8z m0-281.6a38.4 38.4 0 1 1 0 76.8 38.4 38.4 0 0 1 0-76.8z m0-281.6a38.4 38.4 0 1 1 0 76.8 38.4 38.4 0 0 1 0-76.8z" fill="#005FC8" p-id="3114"></path></svg>