<?xml version="1.0" standalone="no"?><!DOCTYPE svg PUBLIC "-//W3C//DTD SVG 1.1//EN" "http://www.w3.org/Graphics/SVG/1.1/DTD/svg11.dtd"><svg t="1584761279093" class="icon" viewBox="0 0 1024 1024" version="1.1" xmlns="http://www.w3.org/2000/svg" p-id="3251" xmlns:xlink="http://www.w3.org/1999/xlink" width="128" height="128"><defs><style type="text/css"></style></defs><path d="M281.6 486.4a25.6 25.6 0 0 1 25.6 25.6v256a25.6 25.6 0 0 1-51.2 0V512a25.6 25.6 0 0 1 25.6-25.6z m153.6-204.8a25.6 25.6 0 0 1 25.6 25.6v460.8a25.6 25.6 0 0 1-51.2 0V307.2a25.6 25.6 0 0 1 25.6-25.6z m153.6 102.4a25.6 25.6 0 0 1 25.6 25.6v358.4a25.6 25.6 0 0 1-51.2 0V409.6a25.6 25.6 0 0 1 25.6-25.6z m153.6-153.6a25.6 25.6 0 0 1 25.6 25.6v512a25.6 25.6 0 0 1-51.2 0V256a25.6 25.6 0 0 1 25.6-25.6z" fill="#005FC8" p-id="3252"></path></svg>