<?xml version="1.0" standalone="no"?><!DOCTYPE svg PUBLIC "-//W3C//DTD SVG 1.1//EN" "http://www.w3.org/Graphics/SVG/1.1/DTD/svg11.dtd"><svg t="1584535114727" class="icon" viewBox="0 0 1024 1024" version="1.1" xmlns="http://www.w3.org/2000/svg" p-id="2801" xmlns:xlink="http://www.w3.org/1999/xlink" width="128" height="128"><defs><style type="text/css"></style></defs><path d="M532.207 718.134v0c3.079-1.777 6.39-3.079 9.112-5.802 0.477-0.594 0.827-1.064 1.303-1.539 0.594-0.709 1.539-0.946 2.12799999-1.54l319.43400001-331.38300001c8.519-8.757 12.781-20.12099999 12.781-31.48299999 0-11.836-4.733-23.79-13.964-32.666-18.107-17.398-46.87100001-16.924-64.26499999 1.183l-288.07100001 298.956-283.922-300.139c-17.28-18.225-46.04-19.05699999-64.265-1.777-18.226 17.281-19.05699999 46.04-1.777 64.265l316.355 334.462c13.844 14.676 35.149 17.399 52.429 9.113 0.945-0.35 1.777-1.18200001 2.722-1.653v0zM532.207 718.134z" p-id="2802"></path></svg>