<?xml version="1.0" standalone="no"?><!DOCTYPE svg PUBLIC "-//W3C//DTD SVG 1.1//EN" "http://www.w3.org/Graphics/SVG/1.1/DTD/svg11.dtd"><svg t="1584351009283" class="icon" viewBox="0 0 1024 1024" version="1.1" xmlns="http://www.w3.org/2000/svg" p-id="2711" xmlns:xlink="http://www.w3.org/1999/xlink" width="128" height="128"><defs><style type="text/css"></style></defs><path d="M627.206656 989.184v-70.144c224.768-48.128 368.128-269.312 320-494.08-34.304-160.256-159.744-285.696-320-320V34.816c263.68 49.152 437.248 302.592 388.608 566.272-36.864 197.12-190.976 351.744-388.608 388.096zM462.342656 921.6l-296.96-204.8H66.054656c-36.864-0.512-66.56-30.72-66.048-68.096V375.296C-0.505344 338.432 28.678656 307.712 66.054656 307.2h99.328l296.96-204.8c36.864 0.512 66.56 30.72 66.048 67.584v683.008c0.512 37.376-29.184 67.584-66.048 68.608z m363.52-409.6c1.024 116.736-83.456 217.088-198.656 235.52v-68.096c92.16-21.504 149.504-113.664 128-206.336-14.848-63.488-64.512-113.152-128-128V276.48c115.2 18.432 199.68 118.784 198.656 235.52z" p-id="2712"></path></svg>