<?xml version="1.0" standalone="no"?><!DOCTYPE svg PUBLIC "-//W3C//DTD SVG 1.1//EN" "http://www.w3.org/Graphics/SVG/1.1/DTD/svg11.dtd"><svg t="1584534396559" class="icon" viewBox="0 0 1024 1024" version="1.1" xmlns="http://www.w3.org/2000/svg" p-id="2070" xmlns:xlink="http://www.w3.org/1999/xlink" width="128" height="128"><defs><style type="text/css"></style></defs><path d="M512 885.3C297 885.3 123.7 715 123.7 506S297 126.7 512 126.7 900.3 296.9 900.3 506c0 209.1-176.3 379.3-388.3 379.3M512 64C264.1 64 64 264.1 64 512s200.1 448 448 448 448-200.1 448-448S759.9 64 512 64m167.2 406.2l-221-134.4c-6-6-14.9-9-23.9-9-17.9 0-32.9 14.9-35.8 29.9v289.7c0 20.9 17.9 38.8 38.8 38.8 9 0 14.9-3 23.9-9l224-137.4c14.9-6 23.9-20.9 23.9-35.8-6-11.9-14.9-26.8-29.9-32.8" fill="#666666" p-id="2071"></path></svg>