<?xml version="1.0" standalone="no"?><!DOCTYPE svg PUBLIC "-//W3C//DTD SVG 1.1//EN" "http://www.w3.org/Graphics/SVG/1.1/DTD/svg11.dtd"><svg t="1584438878832" class="icon" viewBox="0 0 1024 1024" version="1.1" xmlns="http://www.w3.org/2000/svg" p-id="2537" xmlns:xlink="http://www.w3.org/1999/xlink" width="128" height="128"><defs><style type="text/css"></style></defs><path d="M505.249382 0h18.432c53.248 3.072 106.496 10.24 158.72 25.6 32.768 10.24 65.536 22.528 91.136 45.056 8.192 36.864-21.504 68.608-56.32 74.752-77.824-44.032-169.984-61.44-258.048-50.176-102.4 12.288-198.656 64.512-265.216 142.336C133.537382 307.2 97.697382 396.288 92.577382 487.424 88.481382 563.2 103.841382 638.976 138.657382 706.56c47.104 91.136 129.024 163.84 225.28 199.68s204.8 35.84 300.032-2.048c74.752-28.672 140.288-80.896 188.416-145.408 53.248-73.728 81.92-164.864 78.848-254.976 1.024-91.136-25.6-184.32-88.064-251.904-8.192-10.24-22.528-18.432-20.48-33.792 2.048-39.936 63.488-60.416 88.064-28.672 61.44 66.56 99.328 154.624 108.544 244.736 13.312 106.496-2.048 218.112-52.224 313.344C904.609382 870.4 788.897382 965.632 654.753382 1003.52c-108.544 31.744-228.352 25.6-333.824-16.384C209.313382 942.08 115.105382 857.088 58.785382 750.592 0.417382 642.048-14.942618 510.976 14.753382 392.192c26.624-112.64 93.184-214.016 185.344-284.672C287.137382 38.912 395.681382 2.048 505.249382 0z" p-id="2538" fill="#c01600"></path><path d="M423.329382 248.832c-1.024-10.24 1.024-28.672 15.36-28.672 41.984-1.024 84.992 0 126.976 0 8.192 1.024 18.432-2.048 23.552 6.144 7.168 7.168 4.096 18.432 4.096 27.648-13.312 126.976-27.648 253.952-41.984 380.928-1.024 7.168 0 16.384-7.168 22.528-23.552 2.048-46.08 0-69.632 1.024-4.096-5.12-8.192-10.24-7.168-17.408-15.36-130.048-29.696-261.12-44.032-392.192zM492.961382 716.8c29.696-14.336 66.56 13.312 62.464 46.08-1.024 32.768-40.96 53.248-68.608 35.84-30.72-16.384-27.648-69.632 6.144-81.92z" p-id="2539" fill="#c01600"></path></svg>