<?xml version="1.0" standalone="no"?><!DOCTYPE svg PUBLIC "-//W3C//DTD SVG 1.1//EN" "http://www.w3.org/Graphics/SVG/1.1/DTD/svg11.dtd"><svg t="1584542998194" class="icon" viewBox="0 0 1024 1024" version="1.1" xmlns="http://www.w3.org/2000/svg" p-id="2075" xmlns:xlink="http://www.w3.org/1999/xlink" width="128" height="128"><defs><style type="text/css"></style></defs><path d="M508.683938 1001.450777c-65.392746 0-128.928497-12.866321-188.750259-38.068394-57.699482-24.406218-109.562694-59.423834-154.13057-103.859067-44.567876-44.567876-79.45285-96.298446-103.859068-154.13057-25.202073-59.821762-38.068394-123.357513-38.068393-188.750259s12.866321-128.928497 38.068393-188.750259C86.350259 270.192746 121.367876 218.329534 165.803109 173.761658c44.567876-44.567876 96.298446-79.45285 154.13057-103.859067 59.821762-25.202073 123.357513-38.068394 188.750259-38.068394s128.928497 12.866321 188.750259 38.068394C755.133679 94.308808 806.996891 129.326425 851.564767 173.761658c44.567876 44.567876 79.45285 96.298446 103.859067 154.13057 25.334715 59.821762 38.068394 123.22487 38.068394 188.750259s-12.866321 128.928497-38.068394 188.750259c-24.406218 57.699482-59.423834 109.562694-103.859067 154.13057-44.567876 44.567876-96.298446 79.45285-154.13057 103.859067-59.821762 25.202073-123.357513 38.068394-188.750259 38.068394z m0-913.906736C272.049741 87.544041 79.585492 280.00829 79.585492 516.642487S272.049741 945.740933 508.683938 945.740933 937.782383 753.276684 937.782383 516.642487 745.318135 87.544041 508.683938 87.544041z" fill="#060606" p-id="2076"></path><path d="M832.994819 543.834197H509.34715c-15.386528 0-27.854922-12.468394-27.854922-27.854922V192.331606c0-15.386528 12.468394-27.854922 27.854922-27.854922s27.854922 12.468394 27.854923 27.854922v295.792746h295.792746c15.386528 0 27.854922 12.468394 27.854922 27.854923s-12.468394 27.854922-27.854922 27.854922z" fill="#060606" p-id="2077"></path></svg>