<?xml version="1.0" standalone="no"?><!DOCTYPE svg PUBLIC "-//W3C//DTD SVG 1.1//EN" "http://www.w3.org/Graphics/SVG/1.1/DTD/svg11.dtd"><svg t="1584541110039" class="icon" viewBox="0 0 1042 1024" version="1.1" xmlns="http://www.w3.org/2000/svg" p-id="7342" xmlns:xlink="http://www.w3.org/1999/xlink" width="130.25" height="128"><defs><style type="text/css"></style></defs><path d="M927.127339 466.762843a9.914161 9.914161 0 0 1-1.328702-10.90217c11.140655-22.962695 43.302056-108.204036 1.87381-179.715456-29.708413-51.103921-78.734108-62.380853-93.894938-62.619338a10.663685 10.663685 0 0 1-10.220784-8.55139l-23.575942-109.226114c-1.976018-13.184812-17.03464-14.820137-21.668063-6.473163-16.046631 28.209365-43.302056 80.744196-55.158165 104.286068a16.216978 16.216978 0 0 1-12.162734 7.767796c-4.769699 0.272554-11.481348-1.226494-20.169014-7.461172-15.603731-11.208793-56.657214-46.470499-85.173202-68.445185a10.834031 10.834031 0 0 0-17.579749 9.130567c2.010088 34.273696 11.311001 86.638181 15.705939 115.835555 0.647316 4.326799 0.851732 8.687667-2.316712 11.719832-16.319186 15.740008-42.109631 70.489342-36.079368 127.759803 6.302817 59.893796 35.466121 89.193377 43.949372 100.095547 7.801865 10.016369 37.782832 37.782832 76.042635 48.889418s96.824896 12.29901 143.09098-6.405025l105.61477-48.27617c7.972212-3.066235 0-8.823944-4.326799-14.24096z m-127.759803-52.943662a43.370194 43.370194 0 1 1 43.370194-43.370195 43.370194 43.370194 0 0 1-43.370194 43.336125zM718.452994 1024c-124.727637 0-216.442141-96.893035-216.442141-216.442141a216.442141 216.442141 0 1 1 432.884282 0c0 68.138562-31.377808 122.649411-80.437572 162.442331-20.986677 17.03464 108.681006-18.94252 108.681006 53.99981z" p-id="7343" fill="#7cba59"></path><path d="M9.94823 198.842019s129.258851 23.405596 99.754854 130.383137c-24.938714 90.351733-170.653028 310.575564-80.676057 518.193762 57.917777 133.721927 182.645414 176.444805 368.288926 176.444805h135.45946c0-14.479444 1.124286-41.530453-30.662352-65.140465-17.54568-12.980396-56.759422-21.736201-84.185193-34.069281C232.795396 840.741339 238.484966 654.143887 319.77427 556.978299c88.58013-105.887325 164.963458-161.99943 182.304721-283.831179C523.304153 124.128086 446.307579 29.040723 310.26894 4.681187 149.904836-24.039216 14.377237 84.164819 9.94823 198.842019zM980.173209 693.630184a13.627712 13.627712 0 0 0 18.874382 4.905976c31.207461-19.521698 45.346213-39.520366 43.09764-60.847735-3.168443-30.049106-39.895128-48.855349-60.779597-57.202323a13.321089 13.321089 0 0 0-17.647888 8.585459 13.321089 13.321089 0 0 0 7.801866 16.251047c18.329273 7.393034 42.552532 20.952608 44.05158 35.125429 1.022078 9.743814-10.016369 22.349448-30.662353 35.329844a13.423297 13.423297 0 0 0-4.73563 17.818234z" p-id="7344" fill="#7cba59"></path></svg>